<?xml version="1.0" encoding="UTF-8"?>
<svg id="Layer_5" data-name="Layer 5" xmlns="http://www.w3.org/2000/svg" viewBox="0 0 1696.42 549.77">
  <defs>
    <style>
      .cls-1 {
      stroke-width: .54px;
      }

      .cls-1, .cls-2, .cls-3, .cls-4 {
      fill: #5ec300;
      }

      .cls-1, .cls-2, .cls-4 {
      stroke: #5ec300;
      stroke-miterlimit: 10;
      }

      .cls-2 {
      stroke-width: .43px;
      }

      .cls-5 {
      fill: none;
      }

      .cls-5, .cls-3, .cls-6 {
      stroke-width: 0px;
      }

      .cls-4 {
      stroke-width: 1.08px;
      }

      .cls-6 {
      fill: #5b5b5b;
      }
    </style>
  </defs>
  <g>
    <path class="cls-3" d="m193.17,230.53c-91.06-90.37-99.01-164.59,7.1-200.44-154,44.5-81.52,133.97-24.24,204.54,2.26,2.88,4.24,5.44,6.44,8.31,3.24-1.91,6.67-3.45,9.46-5.04-2.44,1.71-5.59,3.69-8.63,6.1,79.01,103.77,111.27,201.65-21.28,229.9-40.69,6.4-97.44,7.23-130.99-13.21,41.12,27.11,79.69,39.23,133.14,36.63,176.63-17.3,131.7-171.75,29-266.79Z"/>
    <path class="cls-3" d="m353.81,62.6c.66,9.22,5.85,44.36-46.71,105.14-1.12-2.08-3.54-5.61-3.54-5.61,0,0,2.03-1.42,1.76-4.15,2.97-4.01,45.04-47.06,48.5-95.38Z"/>
    <path class="cls-4" d="m267.91,225.25s-16.42,14.91-8.57,34.76c6.01,11.27,1.26,27.09,1.21,28.63,1.26-3.19,2.14-8.99,2.97-14.68,1.7,3.53,1.87,10.64,1.87,15.82,1.76-4.84,1.43-20.32-2.53-30.08-4.12-18,3.08-27.9,7.09-32.59"/>
    <path class="cls-1" d="m226.2,183.43s2.44,18.06,13.52,22.85c0,0-12.46-13.64-8.3-23.36-3.05,2.4-5.21.51-5.21.51Z"/>
    <path class="cls-1" d="m245.24,186.45s3.05,16.04,14.02,20.56c0,0-12.58-13-8.47-22.16-2.78.85-5.55,1.6-5.55,1.6Z"/>
    <g>
      <path class="cls-5" d="m183.04,242.61l-22.19,13.3c-18.93,11.7-39.18,25.26-52.7,37.18-44.16,35.85-73.49,74.1-69.04,109.61,11.2,46.89,75.79,63.28,123.9,38.24,16.15-9.37,121.15-77.71,1.16-182.13"/>
      <path class="cls-5" d="m236.17,166.98c13.54-12.78,69.92-72.39,69.15-8.88,5.27-24.5-8.08-61.14-69.15,8.88Z"/>
    </g>
    <path class="cls-3" d="m268.42,223.51c.25-1.28-.33-2.65-.82-3.07,2.31-12.98-.74-31.67-5.27-39.01-1.37.51-3.12,1.04-5.31,1.84,6.37,12.18,4.42,29.69.69,39.37-1.87,5.24-2.25,21.71,4.54,24.62.44-5.09,2.29-12.7,8.64-19.8-.93-.92-1.87-2.04-2.46-3.93Z"/>
    <g>
      <path class="cls-6" d="m262.39,247.01c-1.86-1.55-4.25-5.49-4.47-10.44,5.44-23.9,3.93-49.5,1.15-54.46l-3.87,1.15c5.35,10.07,6.84,25.4,3.62,31.88-9.18,16.97-2.54,29.6,3.48,34.06.01-.75.03-1.48.08-2.2Z"/>
      <path class="cls-6" d="m265.93,247.25c6.23-4.38,24.08-24.55,33.25-36,.86-1.57,1.64-3.82,2.45-4.98,8.32-21.43-17.67-37.39-16.68-37.73.99-.34,20.14-12.68,20.14-12.68,0,.23.12,1.15.12,1.15,0,0,.82,3.07-1.65,5.12,0,0,16.31,22.71,7.74,35-7.91,11.61-39.28,55.16-45.54,53.28l.17-3.17"/>
    </g>
    <path class="cls-3" d="m294.05,195.32c-2.65,6.56-6.66,17.68-6.89,18.37-.33,1.02-3.38,3.93-4.53,6.06-1.69,1.68-3.78,4.69-7.05,7.33-6.71,8.06-8.36,13.57-9.66,20.17,6.64-.93,21.41-21.42,28.25-29.89,1.71-4.4.34-17.97-.12-22.04Z"/>
    <path class="cls-1" d="m286.37,170.39c4.78,7.51,18.26,19.66,13.57,39.04,7.74-12.12,13.46-18.13.11-41-3.79,4.01-8.4,1.88-9.39.43-1.65.6-2.72.94-4.28,1.54Z"/>
    <g>
      <path class="cls-6" d="m195.3,4.55C27.24,44.85,46.79,170.5,155.1,251.09c.39.32.77.64,1.15.95-17.62,8.89-37.36,19.71-55.69,31.66C37.57,323.25,1.1,364.45,0,402.24c1.32,32.32,18.18,93.67,163.23,71.48,163.48-35.06,61.29-183.7,20.64-230.17-8.66,6.86-18.23,15.16-19.02,15.85,118.9,104.08,14.28,172.18-1.84,181.54-48.11,25.04-112.7,8.65-123.91-38.24-4.45-35.51,24.88-73.75,69.04-109.61,13.52-11.92,33.77-25.48,52.7-37.18,0,0,8.55-5.18,17.79-10.66l4.41-2.64c2.09-1.22,4.11-2.38,6.03-3.49.96-.56,1.9-1.1,2.8-1.61-.03.02-.05.04-.08.06,11.19-6.38,18.67-10.38,18.67-10.38,0,0-11.93,4.78-29.55,12.93-34.06-44.94-155.37-162.23,19-209.27,70.74-19.24,154,33.35,89.63,88.1-13.18.23-17.9,5.8-20.98,8.31-34.93,4.89-48.33,32.44-45.92,40.75,1.21,7.34.27,6.72.33,10.47.33,3.3.33,2.22,1.65,5.12,9.45,6.09,7.91-6.26,8.95-10.59-2.64,21.34,21.15,11.04,21.58,10.7,17.36-5.58,42.4-17.07,52.84-28.23C434.55,4.9,265.49-10.47,195.3,4.55Zm110.01,153.43c.77-63.51-55.6-3.79-69.15,8.99,61.07-70.02,74.42-33.49,69.15-8.99Z"/>
      <path class="cls-6" d="m183.06,242.63s-.01-.02-.02-.02l-.14.12c.05-.03.11-.06.16-.1Z"/>
    </g>
    <path class="cls-3" d="m291.25,141.77s-2.28-2.44-4.88-3.23c-2.68-.53-4.2-.09-6.69.04.82.21,8.1,1.01,4.33,2.52-9.29,4.03-18.47,9.88-20.83,15.99,2.33-4.04,7.06-7.25,11.98-9.66-1.24.76-2.29,1.46-2.8,1.87-1.63,1.32.28,6.17-1.42,8.67-1.7,2.5.28-.37,6.67-4.04,5.24-3.02,4.84-7.81,4.53-9.43,5.08-1.84,9.11-2.73,9.11-2.73Z"/>
    <ellipse class="cls-2" cx="250.42" cy="173.97" rx="5.65" ry="3.02" transform="translate(57.69 410.26) rotate(-85.59)"/>
  </g>
  <g>
    <path class="cls-3" d="m444.53,380.36v34c0,3.8-1.35,7.09-4.04,9.88-2.69,2.79-5.87,4.19-9.54,4.19h-96.01v8.21c0,4.8,1.99,8.88,5.98,12.23l7.92,6.87c4.31,3.46,8.4,5.19,12.28,5.19h69.83c3.66,0,6.84,1.37,9.54,4.1,2.69,2.74,4.04,6.06,4.04,9.96s-1.37,7.09-4.12,9.88c-2.75,2.79-5.9,4.19-9.46,4.19h-71.6c-4.74,0-9.73-1.03-14.95-3.1-5.23-2.06-9.08-4.21-11.56-6.45l-12.12-11.05c-3.77-3.12-6.92-7.48-9.46-13.06-2.53-5.58-3.8-10.72-3.8-15.41v-64.48c0-3.68,1.37-8.65,4.12-14.91,2.75-6.25,6.22-11.11,10.43-14.57l11.31-9.21c7.44-6.25,15.68-9.38,24.73-9.38h38.15c9.59,0,18.64,4.13,27.15,12.39l10.18,10.05c7.33,6.81,10.99,16.97,10.99,30.48Zm-109.26-2.18v21.77h82.43v-19.6c0-5.25-1.56-9.27-4.69-12.06l-7.92-7.2c-4.1-3.46-7.76-5.19-10.99-5.19h-34.1c-4.2,0-8.03,1.51-11.48,4.52l-7.92,6.87c-3.56,2.79-5.33,6.42-5.33,10.89Z"/>
    <path class="cls-3" d="m466.35,474.99v-133.48c0-3.91,1.32-7.29,3.96-10.13,2.64-2.85,5.84-4.27,9.62-4.27s6.98,1.4,9.62,4.19c2.64,2.79,3.96,6.2,3.96,10.22v17.58l22.14-19.59c9.16-8.04,18.1-12.06,26.83-12.06h19.88c11.21,0,20.8,4.13,28.77,12.39,7.97,8.26,11.96,18.2,11.96,29.81v7.54c0,4.02-1.32,7.43-3.96,10.22-2.64,2.79-5.85,4.19-9.62,4.19s-6.98-1.37-9.62-4.1c-2.64-2.74-3.96-6.06-3.96-9.97v-7.87c0-3.91-1.32-7.23-3.96-9.96-2.64-2.74-5.85-4.1-9.62-4.1h-17.62c-3.77,0-7.98,2.07-12.61,6.2l-38.63,34.67v78.55c0,3.91-1.35,7.23-4.04,9.96-2.69,2.74-5.87,4.1-9.54,4.1s-6.98-1.37-9.62-4.1c-2.64-2.73-3.96-6.06-3.96-9.96Z"/>
    <path class="cls-3" d="m652.39,472.98v62.3c0,4.02-1.32,7.42-3.96,10.22-2.64,2.79-5.85,4.19-9.62,4.19s-7.03-1.4-9.78-4.19c-2.75-2.79-4.12-6.2-4.12-10.22v-200.64c0-3.79,1.35-7.09,4.04-9.88,2.69-2.79,5.98-4.19,9.86-4.19,3.66,0,6.84,1.4,9.54,4.19,2.69,2.79,4.04,6.09,4.04,9.88v9.04c13.15-15.18,26.13-22.78,38.95-22.78h6.3c9.59,0,18.43,3.68,26.51,11.05l22.63,20.27c9.91,8.93,14.87,20.26,14.87,34v43.88c0,13.85-5.33,25.51-16,35l-22.14,19.76c-7.33,6.92-16.6,10.38-27.8,10.38h-5.98c-10.56,0-19.5-3.8-26.83-11.39l-10.51-10.89Zm38.31-6.2h6.95c3.34,0,6.89-1.73,10.67-5.19l21.17-19.26c3.56-2.9,5.33-6.87,5.33-11.89v-45.39c0-4.46-2-8.43-5.98-11.89l-22.79-20.26c-2.59-2.34-5.39-3.52-8.4-3.52h-7.92c-3.02,0-6.95,2.57-11.8,7.7l-20.2,20.77c-3.56,3.68-5.33,7.82-5.33,12.39v36.01c0,4.35,1.99,8.6,5.98,12.73l19.56,20.27c4.85,5.02,9.1,7.54,12.77,7.54Z"/>
    <path class="cls-3" d="m920.22,380.36v34c0,3.8-1.35,7.09-4.04,9.88-2.69,2.79-5.87,4.19-9.54,4.19h-96.01v8.21c0,4.8,1.99,8.88,5.98,12.23l7.92,6.87c4.31,3.46,8.41,5.19,12.28,5.19h69.83c3.66,0,6.84,1.37,9.54,4.1,2.69,2.74,4.04,6.06,4.04,9.96s-1.37,7.09-4.12,9.88c-2.75,2.79-5.9,4.19-9.46,4.19h-71.6c-4.74,0-9.73-1.03-14.95-3.1-5.23-2.06-9.08-4.21-11.56-6.45l-12.12-11.05c-3.77-3.12-6.92-7.48-9.46-13.06-2.53-5.58-3.8-10.72-3.8-15.41v-64.48c0-3.68,1.37-8.65,4.12-14.91,2.75-6.25,6.22-11.11,10.42-14.57l11.31-9.21c7.43-6.25,15.68-9.38,24.73-9.38h38.15c9.59,0,18.64,4.13,27.15,12.39l10.18,10.05c7.33,6.81,10.99,16.97,10.99,30.48Zm-109.26-2.18v21.77h82.43v-19.6c0-5.25-1.56-9.27-4.69-12.06l-7.92-7.2c-4.1-3.46-7.76-5.19-10.99-5.19h-34.1c-4.2,0-8.03,1.51-11.48,4.52l-7.92,6.87c-3.56,2.79-5.33,6.42-5.33,10.89Z"/>
    <path class="cls-3" d="m1006.28,360.1l-37.09,24.96v89.94c0,3.8-1.35,7.09-4.04,9.88-2.69,2.79-5.87,4.19-9.54,4.19s-6.84-1.39-9.54-4.19c-2.7-2.79-4.04-6.08-4.04-9.88v-133.48c0-3.91,1.32-7.29,3.96-10.13,2.64-2.85,5.84-4.27,9.62-4.27s6.84,1.42,9.54,4.27c2.69,2.85,4.04,6.23,4.04,10.13v9.38l24.78-15.58c8.31-5.47,17.7-8.21,28.16-8.21h12.62c10.79,0,20.12,3.96,28,11.89,7.88,7.93,12.03,17.7,12.46,29.31l3.72,106.69c.11,3.8-1.19,7.09-3.88,9.88-2.69,2.79-5.93,4.19-9.7,4.19-3.56,0-6.68-1.26-9.38-3.77-2.69-2.51-4.1-5.95-4.2-10.3l-4.04-105.01c-.32-9.82-5.29-14.74-14.9-14.74h-13.28c-4.1,0-8.53,1.62-13.28,4.86Z"/>
    <path class="cls-3" d="m1195.96,489.06h-27.15c-11.21,0-20.85-4.13-28.93-12.39-8.08-8.26-12.12-18.2-12.12-29.81v-91.28h-13.9c-3.77,0-6.98-1.34-9.62-4.02-2.64-2.68-3.96-6.03-3.96-10.05s1.32-7.23,3.96-9.97c2.64-2.73,5.84-4.1,9.62-4.1h14.22v-34.5c0-3.91,1.32-7.23,3.96-9.96,2.64-2.73,5.84-4.1,9.62-4.1,3.56,0,6.71,1.4,9.46,4.19,2.75,2.79,4.12,6.09,4.12,9.88v34.5h54.63c3.66,0,6.84,1.4,9.54,4.19,2.69,2.79,4.04,6.09,4.04,9.88s-1.35,7.23-4.04,9.96c-2.69,2.74-5.87,4.1-9.54,4.1h-54.96v91.28c0,3.8,1.37,7.09,4.12,9.88,2.75,2.79,6,4.19,9.78,4.19h26.51c7.22,0,12.01-4.05,14.39-12.14,2.37-8.09,6.95-12.14,13.74-12.14,3.99,0,7.25,1.37,9.78,4.1,2.53,2.74,3.8,6.17,3.8,10.3,0,8.49-3.85,16.94-11.56,25.37-7.71,8.43-17.54,12.64-29.5,12.64Z"/>
    <path class="cls-3" d="m1360.47,488.72h-82.76c-3.77,0-6.98-1.37-9.62-4.1-2.64-2.73-3.96-6.06-3.96-9.96s1.32-7.09,3.96-9.88c2.64-2.79,5.84-4.19,9.62-4.19h27.8v-105.01h-27.48c-3.77,0-6.98-1.39-9.62-4.19-2.64-2.79-3.96-6.08-3.96-9.88s1.32-7.29,3.96-10.13c2.64-2.85,5.84-4.27,9.62-4.27h41.38c3.77,0,6.98,1.42,9.62,4.27,2.64,2.85,3.96,6.23,3.96,10.13v119.08h27.15c3.77,0,7.03,1.37,9.78,4.1,2.75,2.74,4.12,6.06,4.12,9.96s-1.35,7.23-4.04,9.96c-2.69,2.74-5.87,4.1-9.54,4.1Zm-55.28-234.64h14.22c3.77,0,6.98,1.37,9.62,4.1,2.64,2.74,3.96,6.06,3.96,9.96v12.06c0,3.91-1.32,7.29-3.96,10.13-2.64,2.85-5.85,4.27-9.62,4.27h-14.55c-3.88,0-7.14-1.45-9.78-4.36-2.64-2.9-3.91-6.14-3.8-9.71l.32-12.39c0-3.91,1.32-7.23,3.96-9.96,2.64-2.73,5.84-4.1,9.62-4.1Z"/>
    <path class="cls-3" d="m1465.41,360.1l-37.09,24.96v89.94c0,3.8-1.35,7.09-4.04,9.88-2.69,2.79-5.87,4.19-9.54,4.19s-6.84-1.39-9.54-4.19c-2.7-2.79-4.04-6.08-4.04-9.88v-133.48c0-3.91,1.32-7.29,3.96-10.13,2.64-2.85,5.84-4.27,9.62-4.27s6.84,1.42,9.54,4.27c2.69,2.85,4.04,6.23,4.04,10.13v9.38l24.78-15.58c8.31-5.47,17.7-8.21,28.16-8.21h12.62c10.79,0,20.12,3.96,28,11.89,7.88,7.93,12.03,17.7,12.46,29.31l3.72,106.69c.11,3.8-1.19,7.09-3.88,9.88-2.69,2.79-5.93,4.19-9.7,4.19-3.56,0-6.68-1.26-9.38-3.77-2.69-2.51-4.1-5.95-4.2-10.3l-4.04-105.01c-.32-9.82-5.29-14.74-14.9-14.74h-13.28c-4.1,0-8.53,1.62-13.28,4.86Z"/>
    <path class="cls-3" d="m1696.47,380.36v34c0,3.8-1.35,7.09-4.04,9.88-2.69,2.79-5.87,4.19-9.54,4.19h-96.01v8.21c0,4.8,1.99,8.88,5.98,12.23l7.92,6.87c4.31,3.46,8.41,5.19,12.28,5.19h69.83c3.66,0,6.84,1.37,9.54,4.1,2.69,2.74,4.04,6.06,4.04,9.96s-1.37,7.09-4.12,9.88c-2.75,2.79-5.9,4.19-9.46,4.19h-71.6c-4.74,0-9.73-1.03-14.95-3.1-5.23-2.06-9.08-4.21-11.56-6.45l-12.12-11.05c-3.77-3.12-6.92-7.48-9.46-13.06-2.53-5.58-3.8-10.72-3.8-15.41v-64.48c0-3.68,1.37-8.65,4.12-14.91,2.75-6.25,6.22-11.11,10.42-14.57l11.31-9.21c7.43-6.25,15.68-9.38,24.73-9.38h38.15c9.59,0,18.64,4.13,27.15,12.39l10.18,10.05c7.33,6.81,10.99,16.97,10.99,30.48Zm-109.26-2.18v21.77h82.43v-19.6c0-5.25-1.56-9.27-4.69-12.06l-7.92-7.2c-4.1-3.46-7.76-5.19-10.99-5.19h-34.1c-4.2,0-8.03,1.51-11.48,4.52l-7.92,6.87c-3.56,2.79-5.33,6.42-5.33,10.89Z"/>
  </g>
</svg>